<?xml version="1.0" encoding="UTF-8" standalone="no"?>
<!-- Created with Inkscape (http://www.inkscape.org/) -->

<svg
   width="8.0840435mm"
   height="9.3281403mm"
   viewBox="0 0 8.0840435 9.3281403"
   version="1.1"
   id="svg5"
   xml:space="preserve"
   inkscape:version="1.2.2 (b0a8486541, 2022-12-01)"
   sodipodi:docname="Cooling.svg"
   xmlns:inkscape="http://www.inkscape.org/namespaces/inkscape"
   xmlns:sodipodi="http://sodipodi.sourceforge.net/DTD/sodipodi-0.dtd"
   xmlns="http://www.w3.org/2000/svg"
   xmlns:svg="http://www.w3.org/2000/svg"><sodipodi:namedview
     id="namedview7"
     pagecolor="#505050"
     bordercolor="#eeeeee"
     borderopacity="1"
     inkscape:showpageshadow="0"
     inkscape:pageopacity="0"
     inkscape:pagecheckerboard="0"
     inkscape:deskcolor="#505050"
     inkscape:document-units="mm"
     showgrid="false"
     inkscape:zoom="11.313709"
     inkscape:cx="14.363106"
     inkscape:cy="7.5130095"
     inkscape:window-width="1920"
     inkscape:window-height="1009"
     inkscape:window-x="1912"
     inkscape:window-y="-8"
     inkscape:window-maximized="1"
     inkscape:current-layer="layer1" /><defs
     id="defs2"><inkscape:path-effect
       effect="copy_rotate"
       starting_point="53.184105,108.15"
       origin="51.89,108.15"
       id="path-effect260"
       is_visible="true"
       lpeversion="1.2"
       lpesatellites=""
       method="normal"
       num_copies="6"
       starting_angle="0"
       rotation_angle="60"
       gap="2"
       copies_to_360="true"
       mirror_copies="false"
       split_items="false"
       link_styles="false" /></defs><g
     inkscape:label="Layer 1"
     inkscape:groupmode="layer"
     id="layer1"
     transform="translate(-47.824592,-103.97704)"><path
       id="path190"
       style="fill:#ffffff;stroke-width:0.264583"
       d="m 51.884363,103.48593 -5.17e-4,5.2e-4 v 5.1e-4 l -1.29036,2.29185 1.29036,2.23449 v 5.2e-4 5.1e-4 h 5.17e-4 v -0.001 l 1.290361,-2.23449 -1.290361,-2.29185 z m -4.036385,2.33692 1.92e-4,7e-4 4.42e-4,2.6e-4 1.33962,2.26341 2.580305,-2.4e-4 4.51e-4,2.6e-4 4.41e-4,2.5e-4 2.59e-4,-4.4e-4 -8.66e-4,-5e-4 -1.289945,-2.23473 -2.629981,-0.0284 z m 0.0056,4.66407 7.09e-4,1.8e-4 4.42e-4,-2.5e-4 2.62998,-0.0284 1.289945,-2.23473 4.51e-4,-2.6e-4 4.41e-4,-2.6e-4 -2.58e-4,-4.4e-4 -8.66e-4,5e-4 -2.580306,-2.4e-4 -1.33962,2.26341 z m 4.042022,2.32715 5.17e-4,-5.2e-4 v -5.1e-4 l 1.29036,-2.29185 -1.29036,-2.23449 v -5.2e-4 -5.1e-4 h -5.17e-4 v 0.001 l -1.290361,2.23449 1.290361,2.29185 z m 4.036385,-2.33692 -1.92e-4,-7e-4 -4.42e-4,-2.6e-4 -1.33962,-2.26341 -2.580305,2.4e-4 -4.51e-4,-2.6e-4 -4.41e-4,-2.5e-4 -2.59e-4,4.4e-4 8.66e-4,5e-4 1.289945,2.23473 2.629981,0.0284 z m -0.0056,-4.66407 -7.09e-4,-1.8e-4 -4.42e-4,2.5e-4 -2.62998,0.0284 -1.289945,2.23473 -4.51e-4,2.6e-4 -4.41e-4,2.6e-4 2.58e-4,4.4e-4 8.66e-4,-5e-4 2.580306,2.4e-4 1.33962,-2.26341 z"
       inkscape:path-effect="#path-effect260"
       inkscape:original-d="m 51.884363,103.48593 -5.17e-4,5.2e-4 v 5.1e-4 l -1.29036,2.29185 1.29036,2.23449 v 5.2e-4 5.1e-4 h 5.17e-4 v -0.001 l 1.290361,-2.23449 -1.290361,-2.29185 z"
       class="UnoptimicedTransforms"
       transform="translate(-0.02338608,0.49110776)"
       inkscape:export-filename="..\Coding\palworldle\public\work-icons\Cooling.png"
       inkscape:export-xdpi="96"
       inkscape:export-ydpi="96" /></g></svg>
