<?xml version="1.0" encoding="UTF-8" standalone="no"?>
<!-- Created with Inkscape (http://www.inkscape.org/) -->

<svg
   width="8.0840435mm"
   height="9.3281403mm"
   viewBox="0 0 8.0840435 9.3281403"
   version="1.1"
   id="svg5"
   xmlns="http://www.w3.org/2000/svg"
   xmlns:svg="http://www.w3.org/2000/svg">
  <defs
     id="defs2" />
  <g
     id="layer1"
     transform="translate(-47.824592,-103.97704)">
    <path
       id="path190"
       style="fill:#ffffff;stroke-width:0.264583;stroke:none"
       d="m 51.884363,103.48593 -5.17e-4,5.2e-4 v 5.1e-4 l -1.29036,2.29185 1.29036,2.23449 v 5.2e-4 5.1e-4 h 5.17e-4 v -0.001 l 1.290361,-2.23449 -1.290361,-2.29185 z m -4.036385,2.33692 1.92e-4,7e-4 4.42e-4,2.6e-4 1.33962,2.26341 2.580305,-2.4e-4 4.51e-4,2.6e-4 4.41e-4,2.5e-4 2.59e-4,-4.4e-4 -8.66e-4,-5e-4 -1.289945,-2.23473 -2.629981,-0.0284 z m 0.0056,4.66407 7.09e-4,1.8e-4 4.42e-4,-2.5e-4 2.62998,-0.0284 1.289945,-2.23473 4.51e-4,-2.6e-4 4.41e-4,-2.6e-4 -2.58e-4,-4.4e-4 -8.66e-4,5e-4 -2.580306,-2.4e-4 -1.33962,2.26341 z m 4.042022,2.32715 5.17e-4,-5.2e-4 v -5.1e-4 l 1.29036,-2.29185 -1.29036,-2.23449 v -5.2e-4 -5.1e-4 h -5.17e-4 v 0.001 l -1.290361,2.23449 1.290361,2.29185 z m 4.036385,-2.33692 -1.92e-4,-7e-4 -4.42e-4,-2.6e-4 -1.33962,-2.26341 -2.580305,2.4e-4 -4.51e-4,-2.6e-4 -4.41e-4,-2.5e-4 -2.59e-4,4.4e-4 8.66e-4,5e-4 1.289945,2.23473 2.629981,0.0284 z m -0.0056,-4.66407 -7.09e-4,-1.8e-4 -4.42e-4,2.5e-4 -2.62998,0.0284 -1.289945,2.23473 -4.51e-4,2.6e-4 -4.41e-4,2.6e-4 2.58e-4,4.4e-4 8.66e-4,-5e-4 2.580306,2.4e-4 1.33962,-2.26341 z"
       class="UnoptimicedTransforms"
       transform="translate(-0.02338608,0.49110776)" />
  </g>
</svg>
