<?xml version="1.0" encoding="UTF-8" standalone="no"?>
<!-- Created with Inkscape (http://www.inkscape.org/) -->

<svg
   width="7.1210132mm"
   height="5.1314702mm"
   viewBox="0 0 7.1210132 5.1314702"
   version="1.1"
   id="svg1"
   xml:space="preserve"
   xmlns="http://www.w3.org/2000/svg"
   xmlns:svg="http://www.w3.org/2000/svg"><defs
     id="defs1" /><g
     id="layer1"
     transform="translate(-47.365394,-129.30374)"><path
       id="path1"
       style="opacity:1;fill:#ffffff;stroke-width:0.323142"
       d="m 49.311529,129.30374 a 0.97321838,1.3784883 0 0 0 -0.973067,1.37872 0.97321838,1.3784883 0 0 0 0.305407,0.99581 h -0.305407 a 0.97321838,1.3784883 0 0 0 -0.973068,1.37872 0.97321838,1.3784883 0 0 0 0.973068,1.37822 h 5.174361 a 0.97321838,1.3784883 0 0 0 0.973584,-1.37822 0.97321838,1.3784883 0 0 0 -0.973584,-1.37872 h -0.305408 a 0.97321838,1.3784883 0 0 0 0.305408,-0.99581 0.97321838,1.3784883 0 0 0 -0.973067,-1.37872 z m -0.04806,0.34933 a 0.71518105,1.0292195 0 0 1 0.715202,1.02939 0.71518105,1.0292195 0 0 1 -0.715202,1.02888 0.71518105,1.0292195 0 0 1 -0.715202,-1.02888 0.71518105,1.0292195 0 0 1 0.715202,-1.02939 z m -0.05478,0.36845 a 0.37076956,0.67714745 0 0 0 -0.371037,0.67748 0.37076956,0.67714745 0 0 0 0.371037,0.67696 0.37076956,0.67714745 0 0 0 0.37052,-0.67696 0.37076956,0.67714745 0 0 0 -0.37052,-0.67748 z m -0.833024,2.00608 a 0.71518105,1.0292195 0 0 1 0.715201,1.02939 0.71518105,1.0292195 0 0 1 -0.715201,1.02888 0.71518105,1.0292195 0 0 1 -0.715202,-1.02888 0.71518105,1.0292195 0 0 1 0.715202,-1.02939 z m 1.83503,0 a 0.71518105,1.0292195 0 0 1 0.715202,1.02939 0.71518105,1.0292195 0 0 1 -0.715202,1.02888 0.71518105,1.0292195 0 0 1 -0.715202,-1.02888 0.71518105,1.0292195 0 0 1 0.715202,-1.02939 z m -1.922364,0.35915 a 0.37076956,0.67714745 0 0 0 -0.37052,0.67748 0.37076956,0.67714745 0 0 0 0.37052,0.67696 0.37076956,0.67714745 0 0 0 0.37052,-0.67696 0.37076956,0.67714745 0 0 0 -0.37052,-0.67748 z m 1.840715,0 a 0.37076956,0.67714745 0 0 0 -0.371037,0.67748 0.37076956,0.67714745 0 0 0 0.371037,0.67696 0.37076956,0.67714745 0 0 0 0.37052,-0.67696 0.37076956,0.67714745 0 0 0 -0.37052,-0.67748 z" /></g></svg>
